PathFileType	4	(X/Y/Z)	23_coords_data.trc
DataRate	CameraRate	NumFrames	NumMarkers	Units	OrigDataRate	OrigDataStartFrame	OrigNumFrames
30.0	30.0	6	21	m	30.0	11	64
Frame#	Time	THUMB_TIP	THUMB_IP	THUMB_MCP	THUMB_CMC	INDEX_TIP	INDEX_DIP	INDEX_PIP	INDEX_MCP	MIDDLE_TIP	MIDDLE_DIP	MIDDLE_PIP	MIDDLE_MCP	RING_TIP	RING_DIP	RING_PIP	RING_MCP	PINKY_TIP	PINKY_DIP	PINKY_PIP	PINKY_MCP	WRIST
X1	Y1	Z1	X2	Y2	Z2	X3	Y3	Z3	X4	Y4	Z4	X5	Y5	Z5	X6	Y6	Z6	X7	Y7	Z7	X8	Y8	Z8	X9	Y9	Z9	X10	Y10	Z10	X11	Y11	Z11	X12	Y12	Z12	X13	Y13	Z13	X14	Y14	Z14	X15	Y15	Z15	X16	Y16	Z16	X17	Y17	Z17	X18	Y18	Z18	X19	Y19	Z19	X20	Y20	Z20	X21	Y21	Z21
9	0.33333333333333187	0.492681507382127	-0.01820828208102654	-0.17178526533353855	0.4889611482773525	-0.023401495250339854	-0.14971289651844327	0.47978728463397347	-0.030184807668077185	-0.12075349565281662	0.47515758398260677	-0.03072987498517088	-0.07638956014774023	0.5799156818679387	0.026272102833183375	-0.1624998685281427	0.5673881329704977	0.017077912131274964	-0.1531978592850184	0.5486597020748396	0.007757115130477166	-0.13925589197561483	0.5170507307923309	-0.005840930637796227	-0.11416401720019215	0.5980973406609817	0.040305067027323505	-0.13795933151352024	0.5841715696779798	0.030885836626464047	-0.13122501631563238	0.5603374697094389	0.01960628815210308	-0.11881062890005123	0.5251756229553024	0.0026173431200540165	-0.09710421969593275	0.5990839196420281	0.03800330649177042	-0.11583569168803526	0.5852534472347792	0.029149683474985588	-0.1083971842793553	0.5651663137821968	0.018707312257529085	-0.09802202490636303	0.5327735864029604	0.0014747409892514884	-0.08103760456246578	0.5942473949665509	0.030963852526236124	-0.08541775545988095	0.5810086380012863	0.02162443298457717	-0.0798941192807382	0.5635621683140135	0.01170748184314363	-0.07372266932878246	0.5327036869509487	-0.0037885304600164815	-0.0633057992774817	0.4622830810018609	-0.023011742144276925	-0.051989820119430985
10	0.3666666666666651	0.49267970964469354	-0.018224748830434012	-0.1717941479847469	0.48895677950365724	-0.023407314620763175	-0.14971971021175084	0.47978564145467717	-0.03017990823965111	-0.12075693751023031	0.4751465701618771	-0.03073391124738678	-0.07639409158926025	0.5799342606682434	0.02626143081949217	-0.16248391744435392	0.5673957860046582	0.01707576789820875	-0.15318820607796602	0.5486674007712382	0.007750785532376958	-0.1392489764211473	0.517035831767107	-0.005822005455012325	-0.11417190958410395	0.5981967610400423	0.04016207609097189	-0.13791777878676337	0.58423626725856	0.030782867699921	-0.13119951537019253	0.5603750482666423	0.019552120382904215	-0.11879298108695807	0.5251651434498071	0.0026330886478510562	-0.09710987962665796	0.59912845046499	0.03789482438299352	-0.11587033185170642	0.5852774696621175	0.029076761880131863	-0.10842774463393845	0.5651731247821108	0.018676356281307482	-0.0980437733644437	0.5327679753868968	0.0014774158065813392	-0.08104896317954602	0.5942797982289987	0.03088696931595314	-0.08544779236611477	0.5810235950269178	0.02156983432414772	-0.07992836556529459	0.5635826015279106	0.01164885047550146	-0.0737479251082972	0.5327049083658728	-0.0038012705402952207	-0.0633198247737069	0.4622830810018609	-0.023011742144276925	-0.051989820119430985
11	0.39999999999999825	0.49266294760366425	-0.018233995250102386	-0.17180038361360556	0.4889354122400871	-0.02341767830107999	-0.14972698536729356	0.4797688091103308	-0.0301835067406645	-0.12076119601869045	0.4751391886623032	-0.03073592708756867	-0.07639734309463153	0.5799347306957733	0.02624835192007624	-0.1624874885963556	0.5673931461740498	0.017065802590430668	-0.15319289632487382	0.5486667713624886	0.007739097610795387	-0.13925211823899275	0.5170097010541362	-0.0057992487615611266	-0.11418861547114068	0.598276999423689	0.0400148272862777	-0.13790992398787444	0.5842855936060376	0.030672864731825622	-0.13120408333386202	0.5604037126593733	0.019489445003907924	-0.1187945533009167	0.5251510521418465	0.0026455375709064644	-0.09712243688778122	0.599168142291167	0.03779984100913192	-0.11590522110770402	0.585292332876159	0.02902124355749769	-0.10846222843939268	0.5651755786280867	0.018649016574764476	-0.09807410613835454	0.5327570272236155	0.00148760216657573	-0.08106692488024814	0.5942973414279209	0.030853184950374812	-0.08548032433644781	0.5810317399952719	0.021547994146004168	-0.07996332853036314	0.5635940596329284	0.011625663826106636	-0.07377570510908249	0.5326951869357868	-0.0037820066637462846	-0.0633475313896843	0.4622830810018609	-0.023011742144276925	-0.051989820119430985
12	0.43333333333333146	0.4926555507138135	-0.01827214877232164	-0.1718013073109258	0.4889270657399978	-0.023459551543631774	-0.14972894331682146	0.4797604006260835	-0.03021904915922069	-0.12076169555880695	0.4751259895222423	-0.030755326859170706	-0.07639814475469375	0.5799633233213408	0.026166446451620584	-0.16249588617292954	0.567409225469082	0.01700116803674656	-0.15320114041558058	0.5486870431917417	0.0076746625832493365	-0.1392545989159853	0.5170064426400902	-0.005819811973504785	-0.11419716889764892	0.5983825657137806	0.039799252535355434	-0.13791819235932024	0.5843489577818759	0.030509684415136684	-0.1312277684150996	0.5604568777886951	0.019374682993676506	-0.11879435348019429	0.5251582060376682	0.002624803976814527	-0.09712425319123053	0.5992491823410458	0.03765116272466895	-0.11590496725295157	0.5853413622570179	0.028917204998176516	-0.10846920751085698	0.5652074521586749	0.01858483501109176	-0.09807460441108262	0.5327612229726109	0.0014802874518504705	-0.08106291729900994	0.594331425514457	0.0307898373873301	-0.0854518848756457	0.5810603540876765	0.02148921335876497	-0.07994034644571812	0.5636155450813193	0.011576188245997487	-0.07375790430321827	0.5327057391123904	-0.003814432156524661	-0.06333695666931072	0.4622830810018609	-0.023011742144276925	-0.051989820119430985
13	0.4666666666666647	0.492641297797229	-0.01830193433635352	-0.17180543088960443	0.4889129181486924	-0.02348869477747051	-0.1497328981549398	0.4797523691661151	-0.03024346623579366	-0.12076261329469673	0.4751161740440416	-0.03076853097006027	-0.07639911476476924	0.5800122709193054	0.026030863127600723	-0.16251169590425685	0.5674472514310445	0.01688837240918839	-0.15320926887023162	0.548720958348319	0.00758116459578706	-0.1392553567629396	0.5170161388945729	-0.005859332322348476	-0.11419954785564329	0.598487667693663	0.0395337408601214	-0.13796320872380924	0.5844168064405857	0.030294531626654186	-0.13128130208446886	0.5605081970055388	0.019227836233450812	-0.11881871014071815	0.525171545379948	0.002583925195912107	-0.09712886924074549	0.5993486596135809	0.03747141335066795	-0.11589852191041622	0.58540975437711	0.028778040349299094	-0.10847341674834943	0.5652539684698272	0.01849323228149624	-0.09807404193693703	0.5327635505699171	0.0014649101001371623	-0.08107022406044107	0.5943873672318635	0.030688985601313168	-0.08542542915515428	0.5811094901656515	0.021392189898930658	-0.07992383208859988	0.5636501564606194	0.011500645499073037	-0.07374798923422132	0.5327131687182703	-0.0038397443587069313	-0.06333363954539917	0.4622830810018609	-0.023011742144276925	-0.051989820119430985
14	0.4999999999999978	0.492635480600222	-0.018355041345492817	-0.17179982754999912	0.4889039245120175	-0.02354145367626259	-0.1497277497978748	0.4797429738232951	-0.030288347855661146	-0.12075575640061609	0.47511607414368195	-0.03079399148159656	-0.07639106183524869	0.580067212321663	0.025867186137055742	-0.16253479340484073	0.5674920979392115	0.016749648148399743	-0.1532215233403747	0.548763540277655	0.00746258299727276	-0.13925723382044308	0.517035131336049	-0.00591709439003818	-0.11419873440316552	0.5985773752576964	0.039256553972639274	-0.1380447825117116	0.584477194873767	0.030069045676876738	-0.13135339966091397	0.5605612802525857	0.01906482720640068	-0.1188495701000798	0.5251936149900499	0.002520853499006326	-0.09713383596912584	0.5994694406367475	0.037268454124604	-0.1158672273148803	0.5854910164285458	0.028626377652064217	-0.10845654779824077	0.5653112344870436	0.018389927164490172	-0.09805599679318033	0.5327764502506555	0.0014321774882483096	-0.08106648901309454	0.5944414971716434	0.03060205776814906	-0.08538404400139554	0.581149570504929	0.02131922161001376	-0.07989281113910529	0.5636836993938895	0.01143510261739622	-0.07372356831098315	0.5327212256577002	-0.003862430660328209	-0.06332192676973081	0.4622830810018609	-0.023011742144276925	-0.051989820119430985
